<?xml version="1.0" standalone="no"?>
<!DOCTYPE svg PUBLIC "-//W3C//DTD SVG 20010904//EN"
 "http://www.w3.org/TR/2001/REC-SVG-20010904/DTD/svg10.dtd">
<svg version="1.0" xmlns="http://www.w3.org/2000/svg"
 width="600.000000pt" height="382.000000pt" viewBox="0 0 600.000000 382.000000"
 preserveAspectRatio="xMidYMid meet">

<g transform="translate(0.000000,382.000000) scale(0.100000,-0.100000)"
fill="#000000" stroke="none">
<path d="M30 3808 c0 -7 4 -60 10 -118 8 -83 290 -3670 290 -3686 0 -2 1262
-4 2805 -4 l2805 0 0 1910 0 1910 -2955 0 c-2357 0 -2955 -3 -2955 -12z m5580
-1919 l0 -1600 -1242 7 c-684 3 -1787 9 -2453 13 l-1209 6 -158 1560 c-86 858
-157 1572 -158 1588 l0 27 2610 0 2610 0 0 -1601z"/>
<path d="M4463 3045 c-137 -37 -249 -130 -304 -250 -79 -175 -75 -428 11 -612
62 -133 130 -213 412 -478 159 -150 218 -259 218 -404 0 -91 -23 -155 -68
-189 -31 -24 -44 -27 -113 -27 -92 0 -122 16 -157 87 -19 37 -24 68 -29 167
l-6 121 -164 0 -163 0 0 -127 c0 -151 17 -243 62 -333 81 -165 239 -250 465
-250 123 0 187 12 273 53 173 82 260 252 260 512 0 266 -81 423 -343 668 -234
217 -290 284 -328 392 -31 88 -30 217 2 282 33 65 74 85 161 81 119 -6 158
-58 166 -219 l5 -99 170 0 170 0 -6 108 c-9 186 -55 309 -147 401 -55 55 -146
103 -228 120 -73 15 -256 13 -319 -4z"/>
<path d="M946 1943 c68 -604 126 -1117 129 -1140 l6 -43 244 0 243 0 6 38 c3
20 33 291 66 602 34 310 63 566 65 569 3 2 5 -1 5 -8 0 -37 121 -1184 126
-1192 3 -5 109 -9 235 -9 175 0 231 3 234 13 3 6 45 374 95 817 49 443 105
946 125 1119 19 172 35 317 35 322 0 5 -69 9 -154 9 -139 0 -155 -2 -160 -17
-2 -10 -44 -411 -92 -890 -49 -480 -91 -873 -94 -873 -3 0 -43 384 -88 853
-46 468 -86 869 -89 890 l-6 37 -171 0 -171 0 -79 -857 c-43 -472 -82 -876
-85 -898 -5 -30 -13 15 -30 180 -13 121 -55 524 -95 895 l-71 675 -176 3 -175
2 122 -1097z"/>
<path d="M3096 3014 c-164 -40 -277 -150 -331 -324 -22 -73 -32 -303 -16 -394
25 -143 87 -244 187 -302 24 -14 44 -27 44 -28 0 -2 -24 -19 -54 -40 -92 -63
-152 -171 -175 -317 -17 -103 -14 -456 5 -547 39 -191 135 -298 299 -332 154
-32 304 29 385 157 l27 42 6 -62 c3 -35 10 -75 16 -90 l11 -27 180 0 c99 0
180 2 180 4 0 2 -8 23 -17 47 -16 39 -18 97 -21 512 l-3 467 45 0 46 0 0 160
0 160 -45 0 -45 0 0 130 0 130 -180 0 -180 0 0 -131 0 -132 -114 5 c-142 6
-183 25 -221 102 -24 47 -25 59 -25 211 0 147 2 165 23 205 40 80 57 85 325
88 l232 3 0 160 0 159 -262 -1 c-191 0 -279 -5 -322 -15z m372 -1521 c-3 -297
-3 -298 -28 -342 -33 -58 -77 -81 -155 -81 -78 0 -122 23 -155 81 -24 43 -25
48 -25 254 0 233 8 276 64 329 43 41 94 55 204 56 l98 0 -3 -297z"/>
</g>
</svg>
